<?xml version="1.0" encoding="utf-8"?>
<!-- Generator: Adobe Illustrator 15.0.0, SVG Export Plug-In . SVG Version: 6.00 Build 0)  -->
<!DOCTYPE svg PUBLIC "-//W3C//DTD SVG 1.1//EN" "http://www.w3.org/Graphics/SVG/1.1/DTD/svg11.dtd">
<svg version="1.1" id="Layer_1" xmlns="http://www.w3.org/2000/svg" xmlns:xlink="http://www.w3.org/1999/xlink" x="0px" y="0px"
	 width="612px" height="792px" viewBox="0 0 612 792" enable-background="new 0 0 612 792" xml:space="preserve">
<path fill="#858B9B" d="M611.199,390.82c0-169.613-136.628-307.111-305.166-307.111c-168.54,0-305.167,137.498-305.167,307.111
	c0,153.287,111.595,280.34,257.484,303.378V479.593h-77.483V390.82h77.483v-67.66c0-76.97,45.56-119.486,115.266-119.486
	c33.388,0,68.312,5.998,68.312,5.998v75.578h-38.481c-37.91,0-49.731,23.673-49.731,47.96v57.609h84.637l-13.531,88.773h-71.105
	v214.605C499.604,671.16,611.199,544.106,611.199,390.82"/>
</svg>
